# xmcd
#
# Track frame offsets:
#	150
#	26984
#	52821
#	72143
#	94735
#	115887
#	140022
#	162440
#	181494
#	204565
#	228821
#	249275
#
# Disc length: 3638 seconds
#
# Revision: 0
# Processed by: cddbd v1.5.2PL0 Copyright (c) Steve Scherf et al.
# Submitted via: EZCDAudioConverter 8.0.2.1
#
DISCID=a10e340c
DTITLE=Trường Vũ, Phi Nhung, Mạnh Quỳnh - Tam Ca Đặc Biệt. Thuyền Xa Bến Đỗ
DYEAR=1998
DGENRE=
TTITLE0=Trường Vũ - Lá thư đô thị
TTITLE1=Phi Nhung - Nếu em là giai nhân
TTITLE2=Mạnh Quỳnh - Trộm nhìn nhau
TTITLE3=Trường Vũ - Chuyến tàu hoàng hôn
TTITLE4=Phi Nhung - Thầm kín
TTITLE5=Mạnh Quỳnh - Thuyền Xa Bến Đỗ
TTITLE6=Trường Vũ - Khóc thầm
TTITLE7=Phi Nhung - Bông điên điển
TTITLE8=Mạnh Quỳnh - Giận nhau một tuần
TTITLE9=Trường Vũ - Lá vàng khóc lá xanh rơi
TTITLE10=Phi Nhung - Con gái của mẹ
TTITLE11=Mạnh Quỳnh - Yêu trong nghịch cảnh
EXTD=
EXTT0=
EXTT1=
EXTT2=
EXTT3=
EXTT4=
EXTT5=
EXTT6=
EXTT7=
EXTT8=
EXTT9=
EXTT10=
EXTT11=
PLAYORDER=
